# Blender 4.3.0
# www.blender.org
mtllib GeoCheck.mtl
o GeoCheck
v 40.000000 -6.761695 0.000000
v 37.587704 -6.761695 -13.680805
v 30.641777 -6.761696 -25.711506
v 19.999998 -6.761696 -34.641018
v 6.945924 -6.761697 -39.392311
v -6.945932 -6.761697 -39.392307
v -20.000002 -6.761696 -34.641014
v -30.641777 -6.761696 -25.711506
v -37.587704 -6.761695 -13.680808
v -40.000000 -6.761695 -0.000006
v -37.587708 -6.761694 13.680798
v -30.641785 -6.761694 25.711496
v -20.000011 -6.761693 34.641006
v -6.945943 -6.761693 39.392307
v 6.945908 -6.761693 39.392315
v 19.999979 -6.761693 34.641026
v 30.641760 -6.761694 25.711523
v 37.587696 -6.761694 13.680832
v 40.000000 13.238305 -0.000001
v 37.587704 13.238305 -13.680806
v 30.641777 13.238303 -25.711506
v 19.999998 13.238303 -34.641018
v 6.945924 13.238303 -39.392311
v -6.945932 13.238303 -39.392307
v -20.000002 13.238303 -34.641014
v -30.641777 13.238303 -25.711506
v -37.587704 13.238305 -13.680809
v -40.000000 13.238305 -0.000007
v -37.587708 13.238305 13.680797
v -30.641785 13.238307 25.711496
v -20.000011 13.238307 34.641006
v -6.945943 13.238307 39.392307
v 6.945908 13.238307 39.392315
v 19.999979 13.238307 34.641026
v 30.641760 13.238307 25.711523
v 37.587696 13.238305 13.680831
v -0.000006 -6.761695 0.000003
v -0.000007 13.238305 0.000001
vn 1.0000 -0.0000 -0.0000
vn 0.9397 -0.0000 -0.3420
vn 0.7660 -0.0000 -0.6428
vn 0.5000 -0.0000 -0.8660
vn 0.1736 -0.0000 -0.9848
vn -0.1736 -0.0000 -0.9848
vn -0.5000 -0.0000 -0.8660
vn -0.7660 -0.0000 -0.6428
vn -0.9397 -0.0000 -0.3420
vn -1.0000 -0.0000 -0.0000
vn -0.9397 -0.0000 0.3420
vn -0.7660 -0.0000 0.6428
vn -0.5000 -0.0000 0.8660
vn -0.1736 -0.0000 0.9848
vn 0.1736 -0.0000 0.9848
vn 0.5000 -0.0000 0.8660
vn 0.7660 -0.0000 0.6428
vn 0.9397 -0.0000 0.3420
vn -0.0000 -1.0000 -0.0000
vn -0.0000 1.0000 -0.0000
vt 0.750000 0.000000
vt 0.805556 0.000000
vt 0.805556 1.000000
vt 0.750000 1.000000
vt 0.861111 0.000000
vt 0.861111 1.000000
vt 0.916667 0.000000
vt 0.916667 1.000000
vt 0.972222 0.000000
vt 0.972222 1.000000
vt -0.027778 0.000000
vt 0.027778 0.000000
vt 0.027778 1.000000
vt -0.027778 1.000000
vt 0.083333 0.000000
vt 0.083333 1.000000
vt 0.138889 0.000000
vt 0.138889 1.000000
vt 0.194444 0.000000
vt 0.194444 1.000000
vt 0.250000 0.000000
vt 0.250000 1.000000
vt 0.305556 0.000000
vt 0.305556 1.000000
vt 0.361111 0.000000
vt 0.361111 1.000000
vt 0.416667 0.000000
vt 0.416667 1.000000
vt 0.472222 0.000000
vt 0.472222 1.000000
vt 0.527778 0.000000
vt 0.527778 1.000000
vt 0.583333 0.000000
vt 0.583333 1.000000
vt 0.638889 0.000000
vt 0.638889 1.000000
vt 0.694444 0.000000
vt 0.694444 1.000000
vt 0.340033 0.000000
vt 0.195326 0.000000
vt 0.522569 0.000000
vt 0.087367 0.000000
vt 0.029178 0.000000
vt 0.027777 0.000000
vt 0.083333 0.000000
vt 0.189144 0.000000
vt 0.332450 0.000000
vt 0.495964 0.000000
vt 0.659965 0.000000
vt 0.804672 0.000000
vt 0.912631 0.000000
vt 0.970821 0.000000
vt 0.507839 1.000000
vt 0.970821 1.000000
vt 0.912631 1.000000
vt 0.804673 1.000000
vt 0.659966 1.000000
vt 0.495965 1.000000
vt 0.332451 1.000000
vt 0.189145 1.000000
vt 0.083334 1.000000
vt 0.027778 1.000000
vt 0.029179 1.000000
vt 0.087369 1.000000
vt 0.195327 1.000000
s 1
f 1/1/1 2/2/2 20/3/2 19/4/1
f 2/2/2 3/5/3 21/6/3 20/3/2
f 3/5/3 4/7/4 22/8/4 21/6/3
f 4/7/4 5/9/5 23/10/5 22/8/4
f 5/11/5 6/12/6 24/13/6 23/14/5
f 6/12/6 7/15/7 25/16/7 24/13/6
f 7/15/7 8/17/8 26/18/8 25/16/7
f 8/17/8 9/19/9 27/20/9 26/18/8
f 9/19/9 10/21/10 28/22/10 27/20/9
f 10/21/10 11/23/11 29/24/11 28/22/10
f 11/23/11 12/25/12 30/26/12 29/24/11
f 12/25/12 13/27/13 31/28/13 30/26/12
f 13/27/13 14/29/14 32/30/14 31/28/13
f 14/29/14 15/31/15 33/32/15 32/30/14
f 15/31/15 16/33/16 34/34/16 33/32/15
f 16/33/16 17/35/17 35/36/17 34/34/16
f 17/35/17 18/37/18 36/38/18 35/36/17
f 18/37/18 1/1/1 19/4/1 36/38/18
f 18/39/19 17/40/19 37/41/19
f 17/40/19 16/42/19 37/41/19
f 16/42/19 15/43/19 37/41/19
f 15/43/19 14/44/19 37/41/19
f 14/44/19 13/45/19 37/41/19
f 13/45/19 12/46/19 37/41/19
f 12/46/19 11/47/19 37/41/19
f 11/47/19 10/48/19 37/41/19
f 10/48/19 9/49/19 37/41/19
f 9/49/19 8/50/19 37/41/19
f 8/50/19 7/51/19 37/41/19
f 7/51/19 6/52/19 37/41/19
f 6/52/19 5/9/19 37/41/19
f 5/9/19 4/7/19 37/41/19
f 4/7/19 3/5/19 37/41/19
f 3/5/19 2/2/19 37/41/19
f 2/2/19 1/1/19 37/41/19
f 1/1/19 18/39/19 37/41/19
f 36/38/20 19/4/20 38/53/20
f 19/4/20 20/3/20 38/53/20
f 20/3/20 21/6/20 38/53/20
f 21/6/20 22/8/20 38/53/20
f 22/8/20 23/10/20 38/53/20
f 23/10/20 24/54/20 38/53/20
f 24/54/20 25/55/20 38/53/20
f 25/55/20 26/56/20 38/53/20
f 26/56/20 27/57/20 38/53/20
f 27/57/20 28/58/20 38/53/20
f 28/58/20 29/59/20 38/53/20
f 29/59/20 30/60/20 38/53/20
f 30/60/20 31/61/20 38/53/20
f 31/61/20 32/62/20 38/53/20
f 32/62/20 33/63/20 38/53/20
f 33/63/20 34/64/20 38/53/20
f 34/64/20 35/65/20 38/53/20
f 35/65/20 36/38/20 38/53/20
