# 3ds Max Wavefront OBJ Exporter v0.99 - (c)2007 guruware
# File Created: 25.01.2025 08:30:55

mtllib HalfVision.mtl

#
# object Cylinder001
#

v  -24.5737 10.0611 -14.1744
v  -27.9397 10.0611 -4.9148
v  -27.9358 10.0611 4.9375
v  0.0113 10.0611 28.3689
v  -24.5624 10.0611 14.1943
v  -18.2264 10.0611 21.7392
v  -9.6921 10.0611 26.6619
v  0.0000 10.0611 0.1016
v  -18.2437 10.0611 -21.7242
v  -27.9358 -9.9389 4.9375
v  -27.9397 -9.9389 -4.9148
v  -24.5737 -9.9389 -14.1744
v  0.0113 -9.9389 28.3689
v  -18.2264 -9.9389 21.7392
v  -24.5624 -9.9389 14.1943
v  -9.6921 -9.9389 26.6619
v  0.0000 -9.9389 0.1016
v  -18.2437 -9.9389 -21.7242
# 18 vertices

vn -0.6430 0.6700 -0.3709
vn -0.7311 0.6700 -0.1286
vn -0.7310 0.6700 0.1292
vn 0.5290 0.5687 0.6299
vn -0.6427 0.6700 0.3714
vn -0.4769 0.6700 0.5688
vn -0.2536 0.6700 0.6977
vn 0.7239 0.6378 -0.2629
vn 0.0006 0.5686 -0.8226
vn -0.7310 -0.6700 0.1292
vn -0.7311 -0.6700 -0.1286
vn -0.6430 -0.6700 -0.3709
vn 0.5290 -0.5687 0.6299
vn -0.4769 -0.6700 0.5688
vn -0.6427 -0.6700 0.3714
vn -0.2536 -0.6700 0.6977
vn 0.7239 -0.6378 -0.2629
vn 0.0006 -0.5686 -0.8226
# 18 vertex normals

vt 0.1944 0.0000 1.0000
vt 0.2500 0.0000 1.0000
vt 0.3056 0.0000 1.0000
vt 0.5278 0.0000 1.0000
vt 0.3611 0.0000 1.0000
vt 0.4167 0.0000 1.0000
vt 0.4722 0.0000 1.0000
vt 0.2787 0.0000 1.0000
vt 0.1389 0.0000 1.0000
# 9 texture coords

o Cylinder001
g Cylinder001
usemtl wire_088199225
s 1
f 1/1/1 2/2/2 3/3/3 4/4/4 
f 3/3/3 5/5/5 6/6/6 4/4/4 
f 6/6/6 7/7/7 4/4/4 
f 1/1/1 4/4/4 8/8/8 9/9/9 
f 10/3/10 11/2/11 12/1/12 13/4/13 
f 14/6/14 15/5/15 10/3/10 13/4/13 
f 13/4/13 16/7/16 14/6/14 
f 17/8/17 13/4/13 12/1/12 18/9/18 
s 2
f 2/2/2 1/1/1 12/1/12 11/2/11 
f 3/3/3 2/2/2 11/2/11 10/3/10 
f 5/5/5 3/3/3 10/3/10 15/5/15 
f 6/6/6 5/5/5 15/5/15 14/6/14 
f 7/7/7 6/6/6 14/6/14 16/7/16 
f 4/4/4 7/7/7 16/7/16 13/4/13 
s 4
f 8/8/8 4/4/4 13/4/13 17/8/17 
s 2
f 1/1/1 9/9/9 18/9/18 12/1/12 
s 4
f 9/9/9 8/8/8 17/8/17 18/9/18 
# 15 polygons - 2 triangles

