# 3ds Max Wavefront OBJ Exporter v0.99 - (c)2007 guruware
# File Created: 04.02.2025 21:23:00

#
# object HumanVCone
#

v  -0.1322 1.7229 -0.0562
v  -28.4496 -6.5267 -27.3766
v  0.0000 -10.2025 -27.6016
v  0.0000 1.7229 -0.0562
v  0.0000 13.4946 -27.3766
v  -23.4525 10.7895 -50.4736
v  -28.4496 10.1141 -27.3766
v  0.0000 1.8646 -0.0562
v  -0.1322 1.8646 -0.0562
v  0.1322 1.7229 -0.0562
v  28.4496 -6.5267 -27.3766
v  28.4496 10.1141 -27.3766
v  0.1322 1.8646 -0.0562
v  24.0427 -7.0942 -49.5835
v  24.0427 10.6817 -49.5835
v  -0.0420 -6.5267 -60.3708
v  -23.4525 -7.2020 -50.4736
v  -0.0420 10.1141 -60.3708
# 18 vertices

vn -0.2827 -0.5159 0.8087
vn -0.7678 -0.5811 0.2698
vn 0.0005 -0.9854 0.1701
vn 0.0000 -0.5490 0.8359
vn 0.0005 0.9852 0.1716
vn -0.6163 0.5983 -0.5121
vn -0.7658 0.5840 0.2693
vn 0.0000 0.5515 0.8342
vn -0.2827 0.5159 0.8087
vn 0.2827 -0.5159 0.8087
vn 0.7647 -0.5826 0.2754
vn 0.7626 0.5855 0.2749
vn 0.2827 0.5159 0.8087
vn 0.6291 -0.5935 -0.5019
vn 0.6275 0.5964 -0.5006
vn 0.0096 -0.5865 -0.8099
vn -0.6179 -0.5954 -0.5134
vn 0.0096 0.5896 -0.8076
# 18 vertex normals

vt 1.0000 0.0000 0.0000
vt 1.0000 1.0000 0.0000
vt 0.4967 0.5305 0.0000
vt 0.4967 0.0000 0.0000
vt 0.5033 0.5261 0.0000
vt 0.2402 1.0000 0.0000
vt 0.0000 1.0000 0.0000
vt 0.0000 0.0000 0.0000
vt 0.5033 0.0000 0.0000
vt 0.5033 1.0000 0.0000
vt 0.2339 0.0000 0.0000
vt 0.2339 1.0000 0.0000
vt 0.7661 1.0000 0.0000
vt 0.7598 0.0000 0.0000
vt 0.7598 1.0000 0.0000
vt 0.4967 1.0000 0.0000
# 16 texture coords

o HumanVCone
g HumanVCone
s 2
f 1/1/1 2/2/2 3/3/3 4/4/4 
s 4
f 5/5/5 6/6/6 7/7/7 
s 8
f 1/8/1 4/9/4 8/10/8 9/7/9 
s 16
f 10/8/10 11/1/11 12/2/12 13/7/13 
s 32
f 11/8/11 14/11/14 15/12/15 12/7/12 
s 64
f 2/8/2 1/1/1 9/2/9 7/7/7 
s 2
f 11/7/11 10/8/10 4/4/4 3/3/3 
s 4
f 12/2/12 15/13/15 5/5/5 
s 8
f 4/9/4 10/1/10 13/2/13 8/10/8 
s 32
f 16/4/16 17/14/17 6/15/6 18/16/18 
s 4
f 7/7/7 9/8/9 8/9/8 5/5/5 
f 5/5/5 8/9/8 13/1/13 12/2/12 
s 2
f 2/2/2 17/15/17 3/3/3 
f 3/3/3 14/12/14 11/7/11 
s 32
f 17/14/17 2/1/2 7/2/7 6/15/6 
f 14/11/14 16/4/16 18/16/18 15/12/15 
s 4
f 15/13/15 18/10/18 5/5/5 
f 5/5/5 18/10/18 6/6/6 
s 2
f 3/3/3 16/16/16 14/12/14 
f 17/15/17 16/16/16 3/3/3 
# 12 polygons - 8 triangles

